<svg xmlns="http://www.w3.org/2000/svg" width="220" height="58" viewBox="0 0 220 58" fill="none"><rect width="220" height="58" rx="16" fill="white"/><path d="M31 42c-10 0-18-7-18-16s8-16 18-16c5 0 9 2 12 5 2-1 4-2 7-2 7 0 13 5 14 12 7 1 12 6 12 13 0 1 0 2-.2 4H31Z" stroke="#0B63CE" stroke-width="4"/><circle cx="36" cy="31" r="9" fill="#D7A928"/><path d="M31 36V23h8c4 0 7 2 7 6 0 3-2 5-5 6l6 8h-6l-5-7h-1v7h-4Zm4-11v7h4c2 0 3-1 3-3s-1-4-4-4h-3Z" fill="#082A4D"/><text x="84" y="25" font-family="Arial, sans-serif" font-size="19" font-weight="800" fill="#082A4D">RH DIGITAL</text><text x="84" y="42" font-family="Arial, sans-serif" font-size="10" font-weight="700" fill="#0B63CE">WEBSITE FACTORY</text></svg>
